<svg id="Layer_1" data-name="Layer 1" xmlns="http://www.w3.org/2000/svg" viewBox="0 0 190.2 190.35"><defs><style>.cls-1{fill:#ff3636;}.cls-2{fill:#ffec00;}.cls-3{fill:#3ec9ff;}</style></defs><title>Icon</title><path class="cls-1" d="M150.45,111.84h0.37a55.72,55.72,0,1,0-111.44,0h0V125a1.25,1.25,0,0,0,1.25,1.25h109a1.25,1.25,0,0,0,1.25-1.25V111.84h-0.38Z"/><path class="cls-2" d="M95.1,74.69a37.15,37.15,0,0,0-37.15,37.15v14.38h74.3V111.84A37.15,37.15,0,0,0,95.1,74.69Z"/><path class="cls-3" d="M95.1,93.27a18.58,18.58,0,0,0-18.58,18.58v14.38h37.15V111.84A18.58,18.58,0,0,0,95.1,93.27Z"/></svg>